<?xml version="1.0" standalone="no"?>
<!DOCTYPE svg PUBLIC "-//W3C//DTD SVG 1.1//EN" "http://www.w3.org/Graphics/SVG/1.1/DTD/svg11.dtd" >
<svg xmlns="http://www.w3.org/2000/svg">
<metadata>Generated by IcoMoon</metadata>
<defs>
<font id="icomoon" horiz-adv-x="1024">
<font-face units-per-em="1024" ascent="960" descent="-64" />
<missing-glyph horiz-adv-x="1024" />
<glyph unicode="&#x20;" horiz-adv-x="512" d="" />
<glyph unicode="&#xe900;" glyph-name="iconmonstr-zoom-in-thin" d="M676.395 253.44l317.44-317.44 30.165 30.165-317.44 317.44c64.725 71.808 104.107 166.869 104.107 271.061 0 223.701-181.632 405.333-405.333 405.333s-405.333-181.632-405.333-405.333c0-223.701 181.632-405.333 405.333-405.333 104.192 0 199.253 39.381 271.061 104.107zM405.333 917.333c200.149 0 362.667-162.517 362.667-362.667s-162.517-362.667-362.667-362.667-362.667 162.517-362.667 362.667 162.517 362.667 362.667 362.667zM213.333 576v-42.667h170.667v-170.667h42.667v170.667h170.667v42.667h-170.667v170.667h-42.667v-170.667h-170.667z" />
<glyph unicode="&#xe901;" glyph-name="Close" d="M258.355 478.72h501.453v-70.758h-501.453v70.758z" />
<glyph unicode="&#xe902;" glyph-name="Open" d="M483.942 693.76h56.218c4.944-0.167 8.902-4.161 9.011-9.103v-204.81h204.288c4.988-0.112 9.002-4.126 9.113-9.103v-56.229c-0.167-4.944-4.161-8.902-9.103-9.011h-204.298v-203.264c-0.112-4.988-4.126-9.002-9.103-9.113h-56.229c-4.944 0.167-8.902 4.161-9.011 9.103v204.093h-204.288c-4.975 0.056-9 4.045-9.113 9.001v56.229c0.112 4.988 4.126 9.002 9.103 9.113h204.299v204.8c0.527 4.637 4.39 8.217 9.106 8.294h0.008z" />
<glyph unicode="&#xe903;" glyph-name="Check" d="M729.6 640.41c-12.668-0.418-23.995-5.83-32.138-14.32l-0.015-0.016c-90.726-90.931-173.466-180.326-261.018-269.517l-107.418 85.709c-7.934 6.387-18.133 10.252-29.235 10.252-25.852 0-46.809-20.957-46.809-46.809 0-14.75 6.822-27.907 17.483-36.486l0.091-0.070 140.39-112.64c7.934-6.391 18.134-10.258 29.238-10.258 12.939 0 24.652 5.251 33.123 13.739l0.001 0.001c100.864 101.069 191.386 200.499 290.304 299.622 8.754 8.529 14.184 20.433 14.184 33.605 0 25.902-20.997 46.899-46.899 46.899-0.451 0-0.9-0.006-1.348-0.019l0.066 0.001z" />
<glyph unicode="&#xe904;" glyph-name="Down_Arrow" d="M512 293.478l294.605 281.702-33.485 34.918-261.12-249.754-261.222 249.754-33.382-34.918 294.605-281.702z" />
<glyph unicode="&#xe905;" glyph-name="Facebook" d="M563.2 175.411v254.669h76.8l11.981 102.4h-88.781v53.043c0 27.341 8.499 46.182 49.459 46.182h52.941v85.402c-20.988 2.173-45.349 3.412-69.999 3.412-2.428 0-4.852-0.012-7.274-0.036l0.371 0.003c-76.698 1.741-127.898-42.701-127.898-126.362v-63.283h-102.4v-102.4h102.4v-252.928z" />
<glyph unicode="&#xe906;" glyph-name="Google" d="M746.496 539.546v-63.078h-63.181v-63.181h63.181v-63.078h63.078v63.078h63.181v63.181h-63.181v63.078zM399.36 665.805c-119.98-2.665-216.223-100.557-216.223-220.928s96.243-218.263 215.975-220.924l0.248-0.004c127.488 0 212.070 89.6 212.070 215.859 0.138 2.148 0.217 4.658 0.217 7.186 0 10.471-1.349 20.627-3.883 30.304l0.185-0.83h-208.589v-75.878h125.338c-5.12-32.358-37.99-95.232-125.338-95.232-75.439 2.108-135.791 63.766-135.791 139.52s60.352 137.412 135.597 139.516l0.194 0.004c0.82 0.020 1.785 0.031 2.753 0.031 33.049 0 63.070-12.96 85.26-34.076l-0.051 0.048 60.109 57.651c-37.837 35.776-89.031 57.771-145.362 57.771-0.952 0-1.903-0.006-2.853-0.019l0.144 0.001z" />
<glyph unicode="&#xe907;" glyph-name="Icons-06" d="M393.523 586.138l193.229-138.138-193.229-138.138zM328.499 415.437v-168.755c0-0.034 0-0.073 0-0.113 0-12.506 7.072-23.359 17.434-28.781l0.179-0.085c4.29-2.276 9.38-3.612 14.781-3.612 7.111 0 13.681 2.316 18.997 6.234l-0.088-0.062 281.907 201.318c8.234 5.984 13.527 15.584 13.527 26.419s-5.292 20.435-13.433 26.354l-0.094 0.065-281.907 201.421c-5.148 3.777-11.609 6.043-18.599 6.043-0.121 0-0.242-0.001-0.363-0.002h0.018c-0.010 0-0.023 0-0.035 0-5.433 0-10.565-1.286-15.109-3.57l0.194 0.088c-10.544-5.534-17.613-16.405-17.613-28.928 0-0.018 0-0.036 0-0.054v0.003-168.858z" />
<glyph unicode="&#xe908;" glyph-name="Pinterest" d="M517.12 700.826c-0.117 0-0.255 0-0.393 0-135.73 0-245.76-110.030-245.76-245.76 0-100.204 59.97-186.401 145.978-224.659l1.565-0.621c-0.214 3.623-0.336 7.859-0.336 12.125 0 15.683 1.651 30.981 4.79 45.729l-0.255-1.431c4.813 20.48 31.642 133.939 31.642 133.939-4.924 11.105-7.79 24.059-7.79 37.682 0 0.433 0.003 0.865 0.009 1.296l-0.001-0.065c0 36.352 21.094 63.59 47.309 63.59 22.426 0 33.178-16.794 33.178-36.864 0-22.528-14.336-56.115-21.709-87.245-0.746-2.813-1.174-6.042-1.174-9.371 0-20.982 17.009-37.99 37.99-37.99 0.701 0 1.398 0.019 2.089 0.056l-0.096-0.004c46.592 0 77.926 59.802 77.926 130.662 0 53.862-36.25 94.106-102.4 94.106-1.225 0.046-2.663 0.073-4.107 0.073-64.189 0-116.224-52.035-116.224-116.224 0-0.566 0.004-1.13 0.012-1.694l-0.001 0.085c-0.044-0.932-0.069-2.025-0.069-3.123 0-17.165 6.138-32.895 16.34-45.117l-0.091 0.112c2.372-2.196 3.851-5.325 3.851-8.801 0-1.626-0.324-3.177-0.911-4.591l0.029 0.079c-1.126-4.506-3.891-15.462-5.018-19.763-0.65-4.046-4.117-7.099-8.296-7.099-1.422 0-2.761 0.353-3.935 0.977l0.045-0.022c-34.406 14.029-50.381 51.2-50.381 93.901 0 69.837 58.88 153.6 175.616 153.6 93.798 0 155.648-67.891 155.648-140.8 0-96.358-53.658-168.346-133.12-168.346-26.419 0-51.2 14.336-60.006 30.72 0 0-14.234-56.525-17.306-67.482-6.171-20.041-14.567-37.497-25.144-53.376l0.465 0.742c21.013-6.497 45.169-10.239 70.2-10.239 135.73 0 245.76 110.030 245.76 245.76s-110.030 245.76-245.76 245.76c-0.2 0-0.399 0-0.599-0.001h0.031z" />
<glyph unicode="&#xe909;" glyph-name="Size" d="M853.811 548.454v-199.68l-675.84-1.229v199.68h46.080v-107.52c0-8.483 6.877-15.36 15.36-15.36s15.36 6.877 15.36 15.36v0 107.725h38.4v-76.8c0-8.483 6.877-15.36 15.36-15.36s15.36 6.877 15.36 15.36v0 76.8h38.4v-76.902c0-8.483 6.877-15.36 15.36-15.36s15.36 6.877 15.36 15.36v0 76.8h38.4v-76.8c0-8.483 6.877-15.36 15.36-15.36s15.36 6.877 15.36 15.36v0 76.8h38.4v-107.52c0-8.483 6.877-15.36 15.36-15.36s15.36 6.877 15.36 15.36v0 107.52h38.4v-76.8c0-8.483 6.877-15.36 15.36-15.36s15.36 6.877 15.36 15.36v0 77.517h38.4v-76.8c0-8.483 6.877-15.36 15.36-15.36s15.36 6.877 15.36 15.36v0 76.902h38.4v-76.8c0-8.483 6.877-15.36 15.36-15.36s15.36 6.877 15.36 15.36v0 76.8h38.4v-107.622c0-8.483 6.877-15.36 15.36-15.36s15.36 6.877 15.36 15.36v0 107.52zM884.531 563.814c-0.274 8.37-6.99 15.086-15.334 15.359l-0.026 0.001-706.56-1.229c-8.328-0.375-14.985-7.032-15.359-15.325l-0.001-0.035v-230.4c0.325-8.349 7.011-15.035 15.33-15.359l0.030-0.001 706.56 1.229c8.37 0.274 15.086 6.99 15.359 15.334l0.001 0.026z" />
<glyph unicode="&#xe90a;" glyph-name="Twitter" d="M785.51 628.019c-18.843-10.157-40.952-16.905-64.431-18.803l-0.593-0.039c23.758 15.474 41.382 38.649 49.451 65.927l0.213 0.838c-20.563-13.206-44.562-23.28-70.247-28.823l-1.433-0.259c-18.602 23.010-46.827 37.601-78.46 37.601-0.713 0-1.423-0.007-2.132-0.022l0.106 0.002c-61.44 0-112.64-54.784-112.64-121.446-0.046-1.453-0.073-3.161-0.073-4.875 0-8.579 0.659-17.003 1.93-25.226l-0.117 0.917c-92.16 5.222-174.080 53.146-232.755 126.669-9.345-17.361-15.015-37.922-15.46-59.766l-0.002-0.138c-0.008-0.512-0.012-1.117-0.012-1.723 0-39.936 19.423-75.335 49.339-97.266l0.338-0.236c-18.318 0.732-35.319 5.728-50.24 14.015l0.576-0.293v-1.741c-0.017-0.757-0.027-1.649-0.027-2.544 0-56.112 39.008-103.113 91.386-115.365l0.801-0.158c-8.947-2.499-19.427-4.319-30.197-5.090l-0.523-0.030c-0.991-0.040-2.154-0.063-3.323-0.063-6.072 0-11.999 0.62-17.722 1.799l0.565-0.097c12.918-47.793 55.319-82.597 106.048-83.863l0.141-0.003c-37.666-31.825-86.766-51.178-140.386-51.2h-0.005c-1.352-0.045-2.942-0.071-4.537-0.071-8.051 0-15.949 0.659-23.641 1.926l0.838-0.114c49.090-33.070 109.501-52.883 174.525-53.145h0.067c208.794 0 320 183.194 320 342.323v16.998c20.404 18.168 37.856 39.042 51.954 62.184l0.68 1.202z" />
<glyph unicode="&#xe90b;" glyph-name="Wishlist" d="M320.614 189.645l-2.048 487.219h372.838v-487.117l-186.368 153.6zM504.934 383.078l155.75-128.307v391.373h-311.296l1.741-391.27z" />
<glyph unicode="&#xe90c;" glyph-name="Arrow_Left" d="M609.997 309.862l-193.229 138.138 193.229 138.138zM675.021 480.563v168.755c0 0.034 0 0.073 0 0.113 0 12.506-7.072 23.359-17.434 28.781l-0.179 0.085c-4.29 2.276-9.38 3.612-14.781 3.612-7.111 0-13.681-2.316-18.997-6.234l0.088 0.062-281.907-201.318c-8.234-5.984-13.527-15.584-13.527-26.419s5.292-20.435 13.433-26.354l0.094-0.065 281.907-201.421c5.148-3.777 11.609-6.043 18.599-6.043 0.121 0 0.242 0.001 0.363 0.002h-0.018c0.010 0 0.023 0 0.035 0 5.433 0 10.565 1.286 15.109 3.57l-0.194-0.088c10.544 5.534 17.613 16.405 17.613 28.928 0 0.018 0 0.036 0 0.054v-0.003 168.858z" />
<glyph unicode="&#xe90d;" glyph-name="Arrow_Long" d="M896.717 495.002l87.347-62.362-87.347-62.362zM14.746 417.894h852.582v-76.186c-0.003-0.108-0.004-0.235-0.004-0.363 0-8.087 6.556-14.643 14.643-14.643 3.369 0 6.473 1.138 8.947 3.050l-0.034-0.025 126.976 90.931c3.743 2.709 6.149 7.064 6.149 11.981s-2.407 9.272-6.107 11.951l-0.043 0.030-126.976 90.931c-2.381 1.745-5.369 2.793-8.602 2.793-8.087 0-14.643-6.556-14.643-14.643 0-0.046 0-0.092 0.001-0.138v0.007-76.186h-852.89c-8.144 0-14.746-6.602-14.746-14.746s6.602-14.746 14.746-14.746v0z" />
<glyph unicode="&#xe90e;" glyph-name="Arrow_Play" d="M698.982 450.355l-350.413-237.978v476.774l350.413-238.797z" />
<glyph unicode="&#xe90f;" glyph-name="Phone" d="M508.109 871.731c-244.941 0-444.211-190.771-444.211-425.267s199.27-425.267 444.211-425.267c1.679-0.023 3.662-0.036 5.648-0.036 50.656 0 99.348 8.409 144.756 23.908l-3.153-0.935c12.902 3.379 77.312 22.016 87.347 50.278 7.373 19.046-6.451 43.11-18.637 64.41-3.968 6.237-7.774 13.472-10.989 21.019l-0.378 0.997c16.055 12.723 29.642 27.679 40.526 44.542l3.097 5.122-94.618 126.976-6.349-5.734c-25.805-23.347-60.621-46.080-71.68-41.882s-57.446 70.042-95.13 130.355c-29.286 45.67-60.518 121.651-57.754 140.186 1.741 11.981 39.014 30.72 72.499 40.96l8.192 2.458-60.416 145.306h-5.018c-2.97 0-73.523 1.229-115.302-51.2-38.605-48.742 28.57-230.195 73.83-309.76 36.146-62.8 74.545-117.022 117.404-167.328l-1.282 1.543c51.2-59.494 92.16-89.6 122.88-89.6 0.887-0.050 1.925-0.079 2.97-0.079s2.082 0.029 3.113 0.085l-0.143-0.006c16.182 2.412 30.745 7.59 43.824 15.067l-0.611-0.322c3.879-8.244 7.531-14.956 11.508-21.447l-0.551 0.967c8.192-14.336 20.48-35.942 17.101-44.954-3.994-11.059-40.346-27.546-72.602-36.25-40.319-13.91-86.78-21.941-135.118-21.941-1.71 0-3.417 0.010-5.122 0.030l0.259-0.002c-232.243 0-421.171 180.429-421.171 402.227s188.826 402.534 421.069 402.534 421.274-180.429 421.274-402.227c-0.017-81.63-25.168-157.382-68.133-219.944l0.857 1.32 19.149-12.902c44.744 64.818 71.526 145.029 71.68 231.487v0.039c-0.614 234.496-199.782 425.267-444.826 425.267z" />
<glyph unicode="&#xe910;" glyph-name="Search" d="M442.88 264.909c0.030 0 0.066 0 0.102 0 140.819 0 254.976 114.157 254.976 254.976s-114.157 254.976-254.976 254.976c-140.819 0-254.976-114.157-254.976-254.976 0-0.072 0-0.144 0-0.216v0.011c0.233-140.648 114.217-254.597 254.857-254.771h0.017zM442.88 834.765c0.16 0 0.349 0 0.538 0 173.847 0 314.778-140.931 314.778-314.778 0-76.426-27.236-146.49-72.532-201.016l0.417 0.516 209.92-210.33-42.394-42.394-210.33 210.33c-54.018-44.864-124.082-72.090-200.505-72.090-173.903 0-314.88 140.977-314.88 314.88s140.977 314.88 314.88 314.88c0.038 0 0.076 0 0.114 0h-0.006z" />
<glyph unicode="&#xe911;" glyph-name="Arrow_Right" d="M393.523 586.138l193.229-138.138-193.229-138.138zM328.499 415.437v-168.755c0-0.034 0-0.073 0-0.113 0-12.506 7.072-23.359 17.434-28.781l0.179-0.085c4.29-2.276 9.38-3.612 14.781-3.612 7.111 0 13.681 2.316 18.997 6.234l-0.088-0.062 281.907 201.318c8.234 5.984 13.527 15.584 13.527 26.419s-5.292 20.435-13.433 26.354l-0.094 0.065-281.907 201.421c-5.148 3.777-11.609 6.043-18.599 6.043-0.121 0-0.242-0.001-0.363-0.002h0.018c-0.010 0-0.023 0-0.035 0-5.433 0-10.565-1.286-15.109-3.57l0.194 0.088c-10.544-5.534-17.613-16.405-17.613-28.928 0-0.018 0-0.036 0-0.054v0.003-168.858z" />
<glyph unicode="&#xe912;" glyph-name="NW_Icons_Replay" d="M428.032 622.080h-301.056l150.528-221.184zM523.264 763.392c-114.688 0-215.040-60.416-271.36-151.552h47.104c51.2 68.608 133.12 112.64 224.256 112.64 154.624 0 280.576-125.952 280.576-280.576s-124.928-281.6-280.576-281.6c-96.256 0-181.248 49.152-232.448 122.88h-45.056c55.296-96.256 158.72-161.792 277.504-161.792 176.128 0 319.488 143.36 319.488 319.488s-142.336 320.512-319.488 320.512z" />
<glyph unicode="&#xe913;" glyph-name="NW_Icons_Pause" d="M356.352 678.4h78.848v-471.040h-78.848v471.040zM574.464 678.4h78.848v-471.040h-78.848v471.040z" />
<glyph unicode="&#xe914;" glyph-name="customize" d="M92.16 785.92c-11.009-0.721-19.759-9.471-20.477-20.415l-0.003-0.065v-737.28c0.383-11.153 9.327-20.097 20.444-20.479l0.036-0.001h737.28c11.153 0.383 20.097 9.327 20.479 20.444l0.001 0.036v440.32c0 11.311-9.169 20.48-20.48 20.48s-20.48-9.169-20.48-20.48v0-419.84h-696.32v696.32h419.84c11.311 0 20.48 9.169 20.48 20.48s-9.169 20.48-20.48 20.48v0zM946.278 766.669l-115.917 115.814c-3.701 3.678-8.802 5.951-14.433 5.951-0.759 0-1.509-0.041-2.247-0.122l0.091 0.008c-4.792-0.546-9.006-2.673-12.186-5.838l-463.666-463.359c-3.107-3.165-5.194-7.341-5.726-11.989l-0.009-0.094-14.746-130.56c-0.118-0.825-0.185-1.777-0.185-2.745 0-11.311 9.169-20.48 20.48-20.48 0.968 0 1.92 0.067 2.852 0.197l130.452 14.938c4.645 0.527 8.742 2.537 11.886 5.537l463.352 463.659c3.742 3.712 6.058 8.856 6.058 14.541s-2.316 10.829-6.057 14.539l-0.001 0.001zM361.267 297.574l8.294 75.469 67.277-67.174zM475.853 325.12l-86.733 86.733 368.64 369.254 87.040-87.040zM874.291 723.456l-87.040 87.040 28.774 28.774 87.040-87.040z" />
</font>
</defs>
</svg>
